<svg width="258.902" height="60.522" viewBox="0 0 258.902 60.522" xmlns="http://www.w3.org/2000/svg"><g id="svgGroup" stroke-linecap="round" fill-rule="evenodd" font-size="9pt" stroke="#000" stroke-width="0.25mm" fill="#000" style="stroke:#000;stroke-width:0.25mm;fill:#000"><path d="M 30.616 21.806 L 26.878 21.539 L 26.878 14.419 L 41.919 14.419 L 41.919 20.204 Q 44.233 16.911 48.06 14.997 Q 51.887 13.084 56.337 13.084 Q 63.101 13.084 66.795 16.955 Q 70.488 20.827 70.488 28.57 L 70.488 51.799 L 75.561 52.066 L 75.561 59.186 L 54.379 59.186 L 54.379 52.422 L 57.316 52.155 Q 58.651 51.977 59.274 51.398 Q 59.897 50.82 59.897 49.218 L 59.897 30.884 Q 59.897 25.989 58.384 23.63 Q 56.871 21.272 52.644 21.272 Q 48.416 21.272 45.924 23.942 Q 43.432 26.612 43.432 30.261 L 43.432 51.799 L 48.505 52.066 L 48.505 59.186 L 27.323 59.186 L 27.323 52.422 L 30.26 52.155 Q 31.595 51.977 32.218 51.398 Q 32.841 50.82 32.841 49.218 L 32.841 24.565 Q 32.841 21.895 30.616 21.806 Z M 103.418 21.539 L 103.418 14.419 L 122.197 14.419 L 122.197 21.361 L 119.438 21.539 Q 117.658 21.717 117.035 23.675 L 105.554 59.186 L 91.937 59.186 L 79.477 23.764 Q 79.032 22.518 78.543 22.073 Q 78.053 21.628 76.896 21.539 L 74.315 21.361 L 74.315 14.419 L 95.23 14.419 L 95.23 21.539 L 89.801 21.806 L 98.968 51.087 L 99.146 51.087 L 108.046 21.806 L 103.418 21.539 Z M 150.855 59.186 L 125.935 59.186 L 125.935 51.977 L 128.872 51.71 Q 131.453 51.443 131.453 49.218 L 131.453 7.833 L 126.38 7.566 L 126.38 0.001 L 151.834 0.001 Q 161.802 0.001 167.365 4.673 Q 172.927 9.346 172.927 18.691 Q 172.927 28.036 166.608 33.242 Q 160.289 38.449 149.876 38.449 L 142.311 38.449 L 142.311 51.354 L 150.855 51.621 L 150.855 59.186 Z M 184.052 49.218 L 184.052 24.565 Q 184.052 23.141 183.562 22.562 Q 183.073 21.984 181.827 21.895 L 178.089 21.628 L 178.089 14.419 L 193.13 14.419 L 193.13 21.094 Q 194.732 17.623 198.114 15.353 Q 201.496 13.084 205.901 13.084 Q 210.307 13.084 214.312 15.042 L 214.312 28.303 L 206.035 28.926 L 206.035 24.832 Q 206.035 23.052 205.145 22.607 Q 204.166 22.162 202.742 22.162 Q 199.182 22.162 196.912 24.698 Q 194.643 27.235 194.643 31.151 L 194.643 51.799 L 202.386 52.155 L 202.386 59.186 L 178.534 59.186 L 178.534 52.422 L 181.471 52.155 Q 182.806 51.977 183.429 51.398 Q 184.052 50.82 184.052 49.218 Z M 5.518 48.773 L 5.518 7.833 L 0.445 7.566 L 0.445 0.001 L 21.983 0.001 L 21.983 7.21 L 19.046 7.477 Q 16.465 7.744 16.465 10.325 L 16.465 51.354 L 21.538 51.621 L 21.538 59.186 L 0 59.186 L 0 51.977 L 2.937 51.71 Q 4.272 51.532 4.895 50.953 Q 5.518 50.375 5.518 48.773 Z M 217.872 36.758 Q 217.872 30.172 219.83 25.321 Q 221.788 20.471 225.081 17.89 Q 231.4 13.084 239.054 13.084 Q 244.394 13.084 248.087 14.819 Q 251.781 16.555 253.873 18.824 Q 255.964 21.094 257.432 25.41 Q 258.901 29.727 258.901 35.601 Q 258.901 47.883 252.938 54.202 Q 246.975 60.521 237.674 60.521 Q 228.374 60.521 223.123 54.513 Q 217.872 48.506 217.872 36.758 Z M 238.342 52.689 Q 248.043 52.689 248.043 37.025 Q 248.043 29.104 245.862 25.01 Q 243.682 20.916 238.564 20.916 Q 233.447 20.916 231.044 24.832 Q 228.641 28.748 228.641 35.512 Q 228.641 48.061 233.269 51.265 Q 235.316 52.689 238.342 52.689 Z M 142.311 8.634 L 142.311 29.816 L 148.719 29.816 Q 161.713 29.816 161.713 19.225 Q 161.713 12.817 158.376 10.725 Q 155.038 8.634 147.74 8.634 L 142.311 8.634 Z" vector-effect="non-scaling-stroke"/></g></svg>